<?xml version="1.0" encoding="UTF-8"?>
<svg version="1.1" xmlns="http://www.w3.org/2000/svg" width="500" height="500">
<path d="M0 0 C0.67546875 0.33902344 1.3509375 0.67804688 2.046875 1.02734375 C10.49361202 5.62721411 15.85768669 13.47992704 19.30859375 22.28515625 C21.4397744 30.65335144 21.15592307 39.28277575 21.13037109 47.85644531 C21.12501124 49.9955148 21.13034373 52.13437438 21.13671875 54.2734375 C21.13975975 61.25313531 20.97289347 68.08164645 20 75 C11.97875848 75.71413279 4.05358138 76.14525497 -4 76 C-5.27197943 71.17092607 -5.05726281 66.48218343 -4.95703125 61.53515625 C-4.93464665 59.6647241 -4.91319085 57.79428064 -4.89257812 55.92382812 C-4.85548052 52.98967773 -4.81237101 50.05610748 -4.75317383 47.12231445 C-4.69856822 44.28067684 -4.66956254 41.43968826 -4.64453125 38.59765625 C-4.62074905 37.7256105 -4.59696686 36.85356476 -4.57246399 35.95509338 C-4.5483021 30.3128261 -5.34767223 27.35040984 -9 23 C-11.98812362 20.65218859 -15.21911188 20.58174919 -18.96875 20.6796875 C-22.35429158 21.21356136 -24.44180448 22.80726098 -27 25 C-28.78595223 27.89107393 -29.23611573 29.98517502 -29.16015625 33.359375 C-29.14855469 34.21708496 -29.13695312 35.07479492 -29.125 35.95849609 C-29.104375 36.87969238 -29.08375 37.80088867 -29.0625 38.75 C-28.91516249 50.85827871 -29.40131937 62.90856205 -30 75 C-34.77092956 76.23402862 -39.42469446 76.11265112 -44.3125 76.0625 C-45.14845703 76.05798828 -45.98441406 76.05347656 -46.84570312 76.04882812 C-48.89716649 76.03710548 -50.94859273 76.01917203 -53 76 C-53.10196962 68.92004795 -53.17170349 61.84028743 -53.21972656 54.75976562 C-53.23976034 52.35442019 -53.26699522 49.94912297 -53.30175781 47.54394531 C-53.35063808 44.07344622 -53.37305205 40.60359474 -53.390625 37.1328125 C-53.41127014 36.06886261 -53.43191528 35.00491272 -53.45318604 33.90872192 C-53.45596779 24.51444938 -50.94990787 16.39718276 -45 9 C-32.78812829 -3.16517239 -15.94392085 -9.21948095 0 0 Z " fill="#CACACA" transform="translate(209,214)"/>
<path d="M0 0 C-0.33 6.27 -0.66 12.54 -1 19 C-6 17 -6 17 -9 15 C-11.05709596 14.75944532 -11.05709596 14.75944532 -13.1875 14.875 C-14.445625 14.91625 -15.70375 14.9575 -17 15 C-19.24292691 18.60222568 -19.2795637 21.66426913 -19.34375 25.85546875 C-19.3583728 26.51654129 -19.37299561 27.17761383 -19.38806152 27.85871887 C-19.43439791 29.96825108 -19.46864358 32.07769532 -19.5 34.1875 C-19.8463724 57.19994953 -19.8463724 57.19994953 -24.875 63.375 C-25.36742187 64.00148438 -25.85984375 64.62796875 -26.3671875 65.2734375 C-28.11892507 67.1257533 -29.87242276 68.59597129 -32 70 C-32.66 70 -33.32 70 -34 70 C-34 70.66 -34 71.32 -34 72 C-31.69 72 -29.38 72 -27 72 C-26.67 71.34 -26.34 70.68 -26 70 C-24.1796875 69.4375 -24.1796875 69.4375 -21.875 69 C-17.83984678 68.18651311 -13.9441139 67.17484244 -10 66 C-17.39601149 74.35033555 -28.29434939 79.1844336 -39.35546875 80 C-49.07655531 80 -58.1625327 77.12839554 -65.48828125 70.60546875 C-74.50205009 61.03270649 -76.27100083 52.04747066 -76.44921875 39.31640625 C-76.47095657 38.22029526 -76.4926944 37.12418427 -76.51509094 35.99485779 C-76.55879754 33.69302138 -76.59804362 31.39109639 -76.63305664 29.08911133 C-76.68770297 25.54935249 -76.75781469 22.01014184 -76.83007812 18.47070312 C-76.87069731 16.23178708 -76.91044222 13.99285497 -76.94921875 11.75390625 C-76.96997971 10.69047501 -76.99074066 9.62704376 -77.01213074 8.53138733 C-77.02577164 7.5562468 -77.03941254 6.58110626 -77.0534668 5.57641602 C-77.06741989 4.71452164 -77.08137299 3.85262726 -77.0957489 2.96461487 C-77 1 -77 1 -76 0 C-68.41 0 -60.82 0 -53 0 C-52.67 16.17 -52.34 32.34 -52 49 C-51.34 49.33 -50.68 49.66 -50 50 C-49.525625 50.66 -49.05125 51.32 -48.5625 52 C-46.62134162 54.48468273 -45.02139196 54.86381441 -41.94921875 55.2734375 C-37.77627501 55.46082357 -34.90504626 55.43391645 -31.5625 52.75 C-27.65675201 48.55846557 -26.75881936 45.82583528 -26.5859375 40.1171875 C-26.54718506 38.95735352 -26.50843262 37.79751953 -26.46850586 36.60253906 C-26.43764893 35.37245117 -26.40679199 34.14236328 -26.375 32.875 C-26.33705322 31.62428711 -26.29910645 30.37357422 -26.26000977 29.08496094 C-25.98498351 19.38857037 -25.8845319 9.69932008 -26 0 C-17.17916905 -0.71135733 -8.80864216 -1.2387153 0 0 Z " fill="#CDCDCC" transform="translate(318,210)"/>
<path d="M0 0 C-0.33 6.27 -0.66 12.54 -1 19 C-6 17 -6 17 -9 15 C-11.05709596 14.75944532 -11.05709596 14.75944532 -13.1875 14.875 C-14.445625 14.91625 -15.70375 14.9575 -17 15 C-19.30088444 18.66526854 -19.30912189 21.90429039 -19.4140625 26.171875 C-19.43342865 26.8542926 -19.4527948 27.53671021 -19.4727478 28.23980713 C-19.53231098 30.40974608 -19.57883446 32.57973877 -19.625 34.75 C-19.66320131 36.22528297 -19.7022543 37.70054415 -19.7421875 39.17578125 C-19.83799235 42.78365418 -19.92210916 46.39169083 -20 50 C-20.33 50 -20.66 50 -21 50 C-21.04898437 49.07316406 -21.09796875 48.14632812 -21.1484375 47.19140625 C-21.22320312 45.99386719 -21.29796875 44.79632813 -21.375 43.5625 C-21.44460938 42.36753906 -21.51421875 41.17257813 -21.5859375 39.94140625 C-21.72257812 38.97074219 -21.85921875 38.00007813 -22 37 C-22.66 36.67 -23.32 36.34 -24 36 C-24.33 38.31 -24.66 40.62 -25 43 C-25.33 43 -25.66 43 -26 43 C-26 28.81 -26 14.62 -26 0 C-8 -1.125 -8 -1.125 0 0 Z " fill="#C0C0BF" transform="translate(318,210)"/>
<path d="M0 0 C5.6624086 0.78525331 9.71394263 2.63046949 14.6875 5.3125 C15.82541992 5.8993457 15.82541992 5.8993457 16.98632812 6.49804688 C20.79942989 8.5274382 23.7797371 10.13444267 26 14 C7.57142857 27 7.57142857 27 1 27 C-0.3308911 24.33821779 -0.11268993 22.31260604 -0.09765625 19.3359375 C-0.09443359 18.21445313 -0.09121094 17.09296875 -0.08789062 15.9375 C-0.07951172 14.761875 -0.07113281 13.58625 -0.0625 12.375 C-0.05798828 11.19164062 -0.05347656 10.00828125 -0.04882812 8.7890625 C-0.03701467 5.85932493 -0.02054258 2.92968728 0 0 Z " fill="#E7E7E7" transform="translate(312,237)"/>
<path d="M0 0 C0.66 0.33 1.32 0.66 2 1 C-13.27118644 12.81832627 -13.27118644 12.81832627 -22 12 C-22 11.34 -22 10.68 -22 10 C-22.66 9.67 -23.32 9.34 -24 9 C-21.64031256 6.90250005 -20.45383006 6.03094296 -17.25 5.8125 C-16.13625 5.9053125 -16.13625 5.9053125 -15 6 C-14.67 5.34 -14.34 4.68 -14 4 C-12.109375 3.4375 -12.109375 3.4375 -9.75 3 C-6.98914938 2.45134129 -4.68771838 1.8737585 -2.0625 0.8125 C-1.381875 0.544375 -0.70125 0.27625 0 0 Z " fill="#C0C0BF" transform="translate(306,276)"/>
<path d="M0 0 C0.33 0 0.66 0 1 0 C1.3690205 15.74487472 1.3690205 15.74487472 -1 23 C-3.046875 22.07421875 -3.046875 22.07421875 -5 20 C-5.22982045 16.88089579 -4.72646487 13.89284539 -4.25 10.8125 C-4.07984375 9.5450293 -4.07984375 9.5450293 -3.90625 8.25195312 C-3.62331171 6.16528326 -3.31413444 4.0822019 -3 2 C-2.67 2 -2.34 2 -2 2 C-1.67 3.98 -1.34 5.96 -1 8 C-0.67 5.36 -0.34 2.72 0 0 Z M-4 23 C-3.34 23 -2.68 23 -2 23 C-2.33 23.66 -2.66 24.32 -3 25 C-3.33 24.34 -3.66 23.68 -4 23 Z " fill="#D3D3D1" transform="translate(296,238)"/>
<path d="M0 0 C-2.31 1.65 -4.62 3.3 -7 5 C-7.33 4.34 -7.66 3.68 -8 3 C-8.66 2.67 -9.32 2.34 -10 2 C-8.71211992 1.46987262 -7.41953322 0.9511671 -6.125 0.4375 C-5.40570313 0.14746094 -4.68640625 -0.14257812 -3.9453125 -0.44140625 C-2 -1 -2 -1 0 0 Z " fill="#AEAEAE" transform="translate(308,277)"/>
<path d="M0 0 C1.45792884 -0.05399736 2.91642712 -0.09279177 4.375 -0.125 C5.18710938 -0.14820313 5.99921875 -0.17140625 6.8359375 -0.1953125 C9 0 9 0 11 2 C3.57142857 3.28571429 3.57142857 3.28571429 0 2 C0 1.34 0 0.68 0 0 Z " fill="#9D9D9D" transform="translate(187,210)"/>
<path d="M0 0 C0.99 0.99 1.98 1.98 3 3 C2.67 3.99 2.34 4.98 2 6 C-0.31 5.67 -2.62 5.34 -5 5 C-3.625 3.5 -3.625 3.5 -2 2 C-1.34 2 -0.68 2 0 2 C0 1.34 0 0.68 0 0 Z " fill="#A3A3A3" transform="translate(308,219)"/>
<path d="" fill="#000000" transform="translate(0,0)"/>
</svg>
